<?xml version="1.0" encoding="iso-8859-1"?>
<!-- Generator: Adobe Illustrator 23.0.1, SVG Export Plug-In . SVG Version: 6.00 Build 0)  -->
<svg version="1.1" id="Layer_1" xmlns="http://www.w3.org/2000/svg" xmlns:xlink="http://www.w3.org/1999/xlink" x="0px" y="0px"
	 viewBox="0 0 185.056 48.022" enable-background="new 0 0 185.056 48.022" xml:space="preserve">
<g>
	<g>
		<path fill="#017F91" d="M0.12,1.335c0.239-0.04,0.392-0.058,0.459-0.058c0.452,0,1.197,0.025,2.235,0.08
			C3.36,1.368,3.732,1.375,3.932,1.375c0.292,0,0.911-0.025,1.856-0.08l3.393-0.2c0.891-0.08,1.929-0.12,3.113-0.12
			c2.088,0,3.752,0.298,4.989,0.889c1.237,0.591,2.192,1.517,2.863,2.78c0.673,1.263,1.009,2.518,1.009,3.767
			c0,2.086-0.731,3.886-2.195,5.403c-1.464,1.513-3.433,2.272-5.907,2.272c-0.691,0-1.27-0.073-1.736-0.21
			c-0.466-0.142-0.998-0.41-1.597-0.809c-0.252-0.171-0.406-0.352-0.459-0.537c0.053-0.094,0.127-0.16,0.22-0.2
			c0.187,0,0.379,0.04,0.579,0.12c0.452,0.16,1.025,0.239,1.716,0.239c1.05,0,2.047-0.261,2.983-0.777
			c0.94-0.519,1.647-1.256,2.126-2.213c0.479-0.954,0.718-1.967,0.718-3.03c0-1.034-0.252-2.039-0.757-3.015
			c-0.504-0.98-1.168-1.76-1.992-2.344c-0.464-0.33-1.179-0.61-2.141-0.835c-0.963-0.229-1.711-0.341-2.241-0.341
			c-1.647,0-2.624,0.12-2.928,0.359l-0.02,0.279l0.06,2.253l-0.02,0.399c-0.027,0.359-0.04,0.911-0.04,1.655
			c0,2.714,0.04,4.402,0.12,5.066v1.118l0.259,9.112c0,0.134-0.016,0.381-0.051,0.74c-0.033,0.356-0.049,0.671-0.049,0.936
			c0,0.639,0.053,1.121,0.16,1.455c0.319,0.094,1.25,0.312,2.794,0.657c0.718,0.174,1.11,0.272,1.178,0.301
			c0.107,0.04,0.2,0.127,0.279,0.258c-0.053,0.2-0.123,0.33-0.21,0.388c-0.085,0.062-0.256,0.091-0.508,0.091
			c-0.16,0-0.532-0.033-1.118-0.098c-1.145-0.12-2.043-0.181-2.694-0.181l-3.513,0.142l-2.096-0.062
			c-0.132,0-0.519,0.015-1.158,0.04l-0.02-0.519l2.594-0.497c0.426-0.12,0.686-0.239,0.778-0.359c0.132-0.185,0.2-0.552,0.2-1.096
			c0-0.12,0.007-0.381,0.02-0.78c0.013-0.279,0.02-0.664,0.02-1.154c0-1.571-0.067-4.913-0.2-10.033
			c-0.053-2.391-0.08-4.822-0.08-7.297V4.968c0-0.958-0.147-1.564-0.439-1.818C3.3,2.714,2.068,2.355,0.1,2.076
			C0.033,1.927,0,1.807,0,1.716C0,1.607,0.04,1.484,0.12,1.335z"/>
		<path fill="#017F91" d="M24.187,26.184c1.934-0.225,3.026-0.385,3.278-0.479c0.172-0.065,0.33-0.265,0.477-0.599v-0.218
			c0-0.334,0.053-1.539,0.158-3.611c0.027-0.584,0.04-1.158,0.04-1.716l-0.06-2.373l0.04-2.692L28.1,9.493l0.02-3.589
			c0.013-1.517-0.103-2.438-0.348-2.772c-0.247-0.334-0.882-0.57-1.907-0.708c-1.025-0.142-1.589-0.243-1.696-0.308
			c-0.107-0.069-0.16-0.174-0.16-0.319c0-0.094,0.02-0.214,0.06-0.359c0.132-0.12,0.439-0.189,0.918-0.2
			c0.067,0,0.249-0.018,0.55-0.051c0.298-0.033,0.581-0.051,0.847-0.051h1.637l5.249-0.058c2.966,0,5.046,0.218,6.238,0.657
			c1.19,0.439,2.137,1.183,2.843,2.224c0.706,1.045,1.058,2.213,1.058,3.505c0,2.446-1.283,4.318-3.846,5.606
			c-0.439,0.229-0.786,0.428-1.038,0.599c0.452,0.958,1.083,2.108,1.894,3.451l2.529,4.344c1.012,1.6,1.711,2.605,2.096,3.012
			c0.386,0.406,0.856,0.74,1.408,1.009c0.552,0.265,1.48,0.519,2.785,0.758c0.013,0.134,0.02,0.239,0.02,0.319
			c0,0.08-0.007,0.181-0.02,0.301c-1.823,0.025-3.959,0.04-6.406,0.04c-0.172,0-0.412-0.015-0.718-0.04
			c-0.945-1.814-2.056-3.806-3.333-5.976l-2.954-5.399c-0.399-0.559-0.729-0.907-0.987-1.049c-0.261-0.138-0.602-0.21-1.029-0.21
			l-1.696,0.022l-0.559-0.022c-0.04,0.428-0.06,1.299-0.06,2.616v6.826c-0.013,0.25,0.04,0.606,0.16,1.056
			c0.107,0.254,0.288,0.457,0.55,0.61c0.258,0.152,1.007,0.381,2.244,0.689l0.818,0.2c0.107,0.131,0.16,0.312,0.16,0.537
			c-0.359,0.069-0.611,0.102-0.757,0.102c-1.196,0-2.039-0.015-2.531-0.04c-0.252-0.015-0.459-0.022-0.617-0.022l-2.711,0.04
			l-2.649-0.018c-0.12,0-0.724,0.018-1.813,0.058l-0.399-0.08l-0.04-0.2C23.909,26.482,24.002,26.344,24.187,26.184z M31.593,13.132
			c0.359,0.011,0.626,0.018,0.798,0.018c0.958,0,2.063-0.112,3.313-0.337c0.878-0.174,1.589-0.454,2.135-0.845
			c0.546-0.392,1.002-0.976,1.366-1.745c0.366-0.769,0.55-1.568,0.55-2.391c0-0.9-0.287-1.858-0.858-2.867
			c-0.439-0.769-1.181-1.415-2.224-1.934c-1.045-0.515-2.299-0.777-3.763-0.777c-0.359,0-0.826,0.022-1.397,0.062
			c-0.053,0.689-0.08,1.219-0.08,1.593l0.1,3.723l-0.02,1.535C31.513,10.204,31.54,11.525,31.593,13.132z"/>
		<path fill="#017F91" d="M48.377,26.163c0.187-0.105,0.352-0.16,0.499-0.16h0.459c0.093,0,0.252-0.007,0.479-0.018
			c1.023-0.094,1.629-0.189,1.814-0.279c0.466-0.254,0.865-0.693,1.197-1.317c0.691-1.357,1.471-3.28,2.335-5.77
			c0.414-1.183,0.673-1.901,0.778-2.155c0.334-0.798,0.653-1.637,0.96-2.515l1.876-5.247c0.292-0.827,0.998-2.714,2.116-5.668
			c0.279-0.748,0.619-1.745,1.018-2.994L62.496,0l0.699,0.018c0.572,1.132,1.076,2.348,1.515,3.654
			c0.239,0.689,0.631,1.724,1.176,3.092l3.03,8.204l1.615,4.449c0.851,2.529,1.41,4.082,1.676,4.659
			c0.267,0.581,0.512,0.962,0.738,1.15c0.067,0.051,0.316,0.131,0.748,0.239c0.435,0.105,0.737,0.185,0.911,0.239
			c0.61,0.171,1.038,0.319,1.277,0.439c0.051,0.145,0.08,0.258,0.08,0.337c0,0.069-0.022,0.167-0.062,0.301
			c-0.425,0.011-0.726,0.018-0.896,0.018c-0.679,0-1.878-0.018-3.594-0.058l-1.996-0.047l-2.415,0.033
			c-0.16,0-0.323-0.007-0.49-0.025c-0.165-0.015-0.308-0.022-0.428-0.022h-0.439c-0.147-0.011-0.279-0.051-0.399-0.12
			c0-0.185,0.033-0.366,0.1-0.537c0.16-0.08,0.307-0.127,0.439-0.142l2.096-0.138c0.544-0.029,0.956-0.102,1.236-0.221
			c0.08-0.239,0.12-0.421,0.12-0.541c0-0.239-0.172-0.86-0.519-1.858c-0.238-0.668-0.448-1.299-0.626-1.901
			c-0.181-0.599-0.887-2.573-2.123-5.918c-0.546-0.091-1.025-0.138-1.437-0.138l-4.271,0.04l-1.257-0.022
			c-0.454,0-0.953,0.033-1.497,0.102c-0.174,0.399-0.287,0.686-0.341,0.856l-1.758,5.49c-0.746,2.086-1.118,3.24-1.118,3.451
			c0,0.12,0.06,0.319,0.18,0.599c0.279,0.08,0.651,0.152,1.118,0.221l2.714,0.239c0.147,0.12,0.22,0.225,0.22,0.319
			c0,0.065-0.02,0.167-0.06,0.298c-0.599,0.015-1.058,0.022-1.377,0.022c-1.065,0-2.302-0.033-3.712-0.102
			c-0.651-0.025-1.118-0.04-1.397-0.04s-0.766,0.015-1.457,0.04c-0.452,0.029-0.778,0.04-0.978,0.04
			c-0.319,0-0.731-0.018-1.237-0.058v-0.12C48.298,26.449,48.325,26.322,48.377,26.163z M57.901,14.188
			c1.422,0.08,3.046,0.12,4.87,0.12c1.038,0,1.949-0.033,2.734-0.098c-0.132-0.519-0.287-1.005-0.459-1.459
			c-0.864-2.311-1.343-3.589-1.435-3.828l-1.814-4.608l-0.198-0.359c-0.082,0.16-0.374,0.845-0.88,2.054
			c-0.853,2.076-1.466,3.69-1.838,4.848c-0.174,0.519-0.354,1.034-0.541,1.546c-0.187,0.512-0.303,0.871-0.35,1.078
			c-0.045,0.207-0.116,0.417-0.209,0.628L57.901,14.188z"/>
		<path fill="#017F91" d="M74.096,4.249l0.816-3.012c0.054-0.399,0.127-0.657,0.221-0.769c0.091-0.112,0.2-0.171,0.319-0.171
			c0.239,0,0.512,0.287,0.816,0.86c0.229,0.41,0.414,0.675,0.559,0.787c0.149,0.112,0.359,0.189,0.639,0.229l0.2-0.018l0.86,0.08
			l4.71,0.058l5.566-0.018h1.637l3.095-0.058c0.131,0,0.298,0.011,0.497,0.04c0.907,0.076,1.466,0.116,1.676,0.116
			c0.2,0,0.359-0.065,0.479-0.196c0.04-0.051,0.261-0.49,0.66-1.317c0.171-0.374,0.385-0.562,0.639-0.562
			c0.105,0,0.239,0.029,0.399,0.08c0.065,0.265,0.098,0.501,0.098,0.715l-0.018,0.791l0.018,1.684c0,0.41-0.033,1.727-0.098,3.959
			c0,0.145-0.029,0.279-0.08,0.399c-0.149,0.091-0.272,0.138-0.381,0.138c-0.105,0-0.2-0.051-0.279-0.149
			c-0.08-0.098-0.178-0.406-0.298-0.922c-0.269-1.187-0.599-2.036-0.998-2.551c-0.269-0.33-0.65-0.566-1.147-0.711
			c-0.501-0.145-1.695-0.218-3.585-0.218c-1.517,0-2.642,0-3.371,0c-0.029,0.533-0.04,1.02-0.04,1.459l0.16,12.403
			c0,0.493-0.029,1.426-0.08,2.798l0.018,2.656l-0.018,1.477c0,0.468,0.08,0.798,0.239,0.998c0.16,0.203,0.591,0.396,1.295,0.581
			c1.226,0.308,2.043,0.493,2.457,0.559c0.25,0.029,0.457,0.08,0.617,0.16V27.2l-2.834-0.069c-1.557-0.015-2.725-0.044-3.513-0.091
			l-2.914,0.142l-2.134,0.12c-0.599,0-0.965-0.015-1.099-0.04l-0.279-0.12c0.029-0.308,0.087-0.504,0.181-0.591
			c0.091-0.083,0.337-0.156,0.737-0.207c0.559-0.08,1.219-0.225,1.978-0.432c0.758-0.203,1.256-0.414,1.495-0.628
			c0.134-0.12,0.229-0.319,0.279-0.599c0.12-0.584,0.181-1.735,0.181-3.451v-3.393l-0.08-7.406l-0.08-1.597l-0.022-5.327
			c-0.838,0-1.909,0-3.211,0c-1.916,0-3.081,0.116-3.494,0.348c-0.65,0.359-1.622,1.419-2.914,3.175
			c-0.425,0.657-0.798,0.987-1.118,0.987l-0.18-0.04c-0.053-0.08-0.08-0.152-0.08-0.221c0-0.16,0.107-0.639,0.319-1.437
			C73.881,5.301,74.041,4.608,74.096,4.249z"/>
		<path fill="#017F91" d="M100.915,27.121l0.022-0.439c0.45-0.25,0.976-0.41,1.575-0.479c0.947-0.12,1.546-0.243,1.796-0.37
			c0.254-0.123,0.432-0.301,0.541-0.526c0.185-0.443,0.279-0.885,0.279-1.339l-0.04-1.52l0.018-1.397l-0.04-1.637
			c0-0.679,0.022-1.528,0.062-2.547s0.058-1.56,0.058-1.629V9.783c0-0.864,0.022-1.8,0.062-2.805s0.058-1.702,0.058-2.086
			c0-1.147-0.025-1.811-0.08-1.999c-0.051-0.185-0.152-0.319-0.298-0.399c-0.149-0.08-0.628-0.152-1.437-0.218
			c-0.628-0.054-1.06-0.102-1.299-0.142c-0.065-0.145-0.098-0.265-0.098-0.359c0-0.105,0.007-0.232,0.018-0.377
			c0.319-0.029,0.566-0.04,0.74-0.04l1.876,0.018c1.328,0,2.74-0.051,4.231-0.16c0.729-0.051,1.836-0.098,3.313-0.138
			c0.025,0.12,0.04,0.232,0.04,0.337c0,0.134-0.029,0.236-0.091,0.308c-0.058,0.076-0.163,0.123-0.308,0.152
			c-1.745,0.145-2.772,0.363-3.084,0.646c-0.312,0.287-0.468,1.016-0.468,2.188c0,2.155,0.033,4.376,0.098,6.666l0.08,1.876
			c0.069,0.051,0.933,0.12,2.594,0.2c0.454,0.025,0.718,0.04,0.798,0.04l2.936-0.04l1.934,0.058l5.069-0.16
			c0.628-0.011,1.005-0.036,1.139-0.076c0.08-2.308,0.12-4.543,0.12-6.706c0-2.079-0.047-3.306-0.142-3.679
			c-0.051-0.225-0.145-0.377-0.279-0.457c-0.08-0.04-0.769-0.145-2.076-0.316c-0.225-0.029-0.439-0.062-0.639-0.102
			c-0.065-0.203-0.098-0.435-0.098-0.697c0.45-0.065,0.737-0.102,0.856-0.102l1.317,0.073c1.212,0.058,2.428,0.087,3.654,0.087
			c0.784,0,2.086-0.065,3.912-0.2c-0.015,0.269-0.047,0.508-0.102,0.718c-0.504,0.2-1.11,0.327-1.814,0.381
			c-0.454,0.025-0.831,0.098-1.139,0.218c-0.25,0.189-0.377,0.566-0.377,1.139c0,0.131,0.007,0.279,0.018,0.439
			c0.015,0.479,0.022,0.791,0.022,0.936v2.297l0.018,1.437l-0.04,1.854l0.022,3.473l-0.04,3.273c0,0.653,0.018,1.669,0.058,3.055
			l-0.018,2.692c0,0.907,0.08,1.549,0.239,1.938c0.08,0.185,0.21,0.319,0.399,0.399l1.615,0.359c0.798,0.2,1.274,0.363,1.43,0.486
			c0.152,0.127,0.229,0.279,0.229,0.45l-0.062,0.239l-0.098,0.022c-0.069,0-0.152-0.015-0.261-0.04
			c-1.448-0.269-2.972-0.399-4.568-0.399c-1.252,0-2.141,0.018-2.663,0.058c-0.526,0.04-1.622,0.189-3.284,0.439
			c-0.029-0.171-0.04-0.298-0.04-0.377c0-0.094,0.011-0.221,0.04-0.381c0.41-0.239,1.063-0.406,1.956-0.497
			c0.664-0.069,1.19-0.279,1.575-0.639c0.254-0.239,0.381-0.591,0.381-1.06l-0.022-2.874c0.04-0.864,0.062-1.335,0.062-1.415
			c0-1.132-0.022-2.783-0.062-4.949c-0.04-0.189-0.112-0.301-0.218-0.341c-0.359-0.12-2.13-0.091-5.309,0.08
			c-0.639,0.04-1.118,0.062-1.437,0.062s-0.987-0.018-2.007-0.051c-1.016-0.033-1.959-0.051-2.823-0.051
			c-0.468,0-0.86,0.007-1.179,0.022c-0.61,0.011-0.951,0.018-1.016,0.018c-0.308,0-0.515,0.062-0.628,0.181
			c-0.116,0.12-0.171,0.337-0.171,0.657l0.018,1.397c0,0.229-0.033,1.484-0.098,3.774c-0.015,0.464-0.022,0.849-0.022,1.158
			c0,1.822,0.069,3.034,0.2,3.632c0.069,0.279,0.189,0.472,0.359,0.577c0.12,0.08,0.639,0.221,1.557,0.421
			c0.613,0.131,1.078,0.258,1.397,0.377l0.12,0.2c0,0.069-0.025,0.12-0.08,0.16c-0.08,0.069-0.192,0.102-0.337,0.102
			c-0.109,0-0.232-0.004-0.381-0.011c-0.145-0.007-0.432-0.018-0.856-0.029c-0.679-0.015-1.524-0.062-2.536-0.142
			c-0.65-0.051-1.23-0.08-1.735-0.08c-0.853,0-2.217,0.047-4.093,0.138C101.474,27.113,101.169,27.121,100.915,27.121z"/>
		<path fill="#017F91" d="M133.029,26.497c0.131-0.116,0.247-0.189,0.337-0.214c0.229-0.065,0.613-0.12,1.158-0.16
			c1.292-0.08,2.09-0.2,2.395-0.359c0.189-0.265,0.279-0.639,0.279-1.121l-0.018-1.397l0.018-5.077l-0.04-2.402l0.022-5.015
			l-0.102-5.697c-0.011-1.361-0.098-2.126-0.258-2.301c-0.239-0.254-0.951-0.399-2.137-0.439c-0.504-0.015-0.951-0.054-1.335-0.12
			c-0.174-0.094-0.261-0.214-0.261-0.359c0-0.109,0.033-0.232,0.102-0.381c0.12-0.065,0.225-0.098,0.319-0.098
			c0.185,0,0.41,0.007,0.679,0.018c0.784,0.08,1.597,0.12,2.435,0.12l1.477-0.04l3.513,0.08c1.756,0,3.124-0.018,4.111-0.058
			c0.983-0.04,1.647-0.062,1.996-0.062c0.305,0,1.063,0.029,2.275,0.08l2.834-0.018l0.337,0.058l1.658-0.058l0.2,0.098
			c0.065,0.109,0.112,0.221,0.138,0.341c0,0.185-0.029,0.472-0.087,0.856c-0.062,0.388-0.091,0.628-0.091,0.718
			c0,1.386,0.047,2.555,0.138,3.513c-0.011,0.08-0.051,0.134-0.116,0.16c-0.145,0-0.276-0.018-0.392-0.058
			c-0.145-0.254-0.341-0.7-0.588-1.339c-0.247-0.639-0.617-1.375-1.11-2.213c-0.334-0.559-0.591-0.893-0.78-0.998
			c-0.185-0.109-0.57-0.16-1.158-0.16c-0.12,0-0.726-0.015-1.818-0.04c-0.29-0.015-0.577-0.022-0.856-0.022l-5.693,0.12h-0.497
			c-0.733,0-1.172,0.094-1.321,0.279c-0.225,0.319-0.337,1.259-0.337,2.816c0,0.16,0.033,1.756,0.098,4.79v2.772
			c0.149,0.04,0.308,0.062,0.479,0.062h0.341c0.225,0,0.559,0.007,0.998,0.018c0.689,0.029,1.158,0.04,1.397,0.04
			c0.16,0,0.298-0.007,0.417-0.018c1.437-0.054,3.288-0.08,5.548-0.08c0.708-0.12,1.118-0.261,1.237-0.421
			c0.2-0.239,0.352-0.864,0.45-1.876c0.102-1.009,0.323-1.582,0.668-1.716c0.174,0,0.334,0.033,0.479,0.102
			c0.029,0.105,0.04,0.207,0.04,0.298c0,0.094-0.011,0.247-0.04,0.461c-0.065,0.49-0.098,2.036-0.098,4.63
			c0,0.689,0.036,1.462,0.109,2.315c0.073,0.849,0.109,1.31,0.109,1.375c0,0.12-0.018,0.279-0.058,0.479
			c-0.109,0.054-0.192,0.08-0.261,0.08h-0.138c-0.214-0.37-0.421-0.951-0.62-1.735c-0.345-1.346-0.708-2.188-1.085-2.526
			c-0.381-0.341-0.998-0.508-1.847-0.508c-0.189,0-0.526,0.007-1.02,0.029c-0.49,0.018-1.223,0.029-2.195,0.029h-1.295
			c-1.851,0-3.063,0.04-3.632,0.12l-0.022,0.66l0.022,3.679l-0.022,2.319l0.022,2.257c0.011,1.361,0.098,2.148,0.258,2.359
			c0.229,0.294,0.718,0.443,1.477,0.443l1.219-0.022c0.105,0,0.523,0.011,1.248,0.029c0.722,0.022,1.618,0.033,2.682,0.033
			c2.569,0,4.278-0.112,5.131-0.33c0.849-0.221,1.553-0.613,2.105-1.172c0.552-0.562,1.248-1.771,2.086-3.625
			c0.25-0.548,0.504-0.82,0.758-0.82c0.12,0,0.25,0.051,0.399,0.16c-0.388,1.317-0.606,2.181-0.66,2.594
			c-0.145,0.929-0.232,1.883-0.258,2.852c0,0.439-0.109,0.806-0.319,1.099h-0.439l-5.61,0.058l-2.515-0.018l-5.987,0.08h-2.435
			c-0.305,0-0.591,0.007-0.856,0.018c-2.395,0.109-4.158,0.16-5.291,0.16c-0.2,0-0.334-0.033-0.406-0.098
			c-0.076-0.062-0.112-0.16-0.112-0.29L133.029,26.497z"/>
		<path fill="#017F91" d="M159.99,26.184c1.934-0.225,3.026-0.385,3.277-0.479c0.174-0.065,0.33-0.265,0.479-0.599v-0.218
			c0-0.334,0.051-1.539,0.156-3.611c0.029-0.584,0.04-1.158,0.04-1.716l-0.058-2.373l0.04-2.692l-0.022-5.004l0.022-3.589
			c0.011-1.517-0.105-2.438-0.348-2.772c-0.247-0.334-0.882-0.57-1.909-0.708c-1.023-0.142-1.589-0.243-1.695-0.308
			c-0.109-0.069-0.16-0.174-0.16-0.319c0-0.094,0.018-0.214,0.058-0.359c0.134-0.12,0.439-0.189,0.918-0.2
			c0.069,0,0.25-0.018,0.552-0.051c0.298-0.033,0.581-0.051,0.845-0.051h1.637l5.251-0.058c2.965,0,5.044,0.218,6.238,0.657
			c1.19,0.439,2.137,1.183,2.841,2.224c0.708,1.045,1.06,2.213,1.06,3.505c0,2.446-1.285,4.318-3.846,5.606
			c-0.439,0.229-0.787,0.428-1.038,0.599c0.45,0.958,1.081,2.108,1.894,3.451l2.529,4.344c1.012,1.6,1.709,2.605,2.094,3.012
			c0.388,0.406,0.856,0.74,1.408,1.009c0.552,0.265,1.48,0.519,2.787,0.758c0.011,0.134,0.018,0.239,0.018,0.319
			c0,0.08-0.007,0.181-0.018,0.301c-1.825,0.025-3.959,0.04-6.408,0.04c-0.171,0-0.41-0.015-0.718-0.04
			c-0.943-1.814-2.054-3.806-3.331-5.976l-2.954-5.399c-0.399-0.559-0.729-0.907-0.987-1.049c-0.261-0.138-0.602-0.21-1.031-0.21
			l-1.695,0.022l-0.559-0.022c-0.04,0.428-0.062,1.299-0.062,2.616v6.826c-0.011,0.25,0.04,0.606,0.16,1.056
			c0.109,0.254,0.29,0.457,0.552,0.61c0.258,0.152,1.005,0.381,2.243,0.689l0.82,0.2c0.105,0.131,0.16,0.312,0.16,0.537
			c-0.359,0.069-0.613,0.102-0.758,0.102c-1.194,0-2.039-0.015-2.529-0.04c-0.254-0.015-0.461-0.022-0.617-0.022l-2.711,0.04
			l-2.649-0.018c-0.12,0-0.726,0.018-1.814,0.058l-0.399-0.08l-0.04-0.2C159.71,26.482,159.805,26.344,159.99,26.184z
			 M167.396,13.132c0.359,0.011,0.624,0.018,0.798,0.018c0.958,0,2.061-0.112,3.313-0.337c0.878-0.174,1.589-0.454,2.134-0.845
			c0.548-0.392,1.002-0.976,1.368-1.745s0.548-1.568,0.548-2.391c0-0.9-0.287-1.858-0.856-2.867
			c-0.439-0.769-1.183-1.415-2.224-1.934c-1.045-0.515-2.301-0.777-3.763-0.777c-0.359,0-0.827,0.022-1.397,0.062
			c-0.054,0.689-0.08,1.219-0.08,1.593l0.098,3.723l-0.018,1.535C167.316,10.204,167.341,11.525,167.396,13.132z"/>
	</g>
	<g>
		<path fill="#7F807F" d="M36.008,42.63c-0.188-0.245-0.426-0.435-0.715-0.567c-0.288-0.132-0.587-0.196-0.895-0.196
			c-0.375,0-0.717,0.07-1.02,0.211c-0.305,0.141-0.565,0.334-0.781,0.579c-0.216,0.245-0.384,0.533-0.504,0.861
			c-0.119,0.331-0.179,0.683-0.179,1.06c0,0.349,0.057,0.683,0.17,0.996c0.113,0.316,0.276,0.591,0.49,0.83
			c0.213,0.239,0.473,0.426,0.78,0.564c0.308,0.138,0.656,0.208,1.045,0.208c0.383,0,0.718-0.08,1.008-0.236
			c0.288-0.156,0.533-0.377,0.734-0.659l0.763,0.573c-0.051,0.07-0.138,0.168-0.263,0.297s-0.293,0.257-0.499,0.386
			s-0.456,0.242-0.748,0.337c-0.293,0.098-0.63,0.147-1.013,0.147c-0.527,0-1.002-0.101-1.426-0.3
			c-0.423-0.202-0.784-0.466-1.081-0.79c-0.299-0.328-0.525-0.695-0.683-1.106c-0.156-0.411-0.234-0.827-0.234-1.247
			c0-0.515,0.084-0.99,0.254-1.428c0.168-0.435,0.406-0.812,0.711-1.127c0.303-0.319,0.669-0.564,1.095-0.741
			c0.427-0.175,0.898-0.263,1.412-0.263c0.44,0,0.87,0.086,1.294,0.254c0.423,0.172,0.769,0.432,1.04,0.781L36.008,42.63z"/>
		<path fill="#7F807F" d="M42.672,41.19h0.82l2.851,6.663h-1.054l-0.668-1.648h-3.172l-0.659,1.648h-1.054L42.672,41.19z
			 M44.291,45.415l-1.242-3.057H43.03l-1.262,3.057H44.291z"/>
		<path fill="#7F807F" d="M49.796,41.19h2.344c0.426,0,0.778,0.058,1.054,0.175c0.276,0.116,0.495,0.263,0.654,0.441
			c0.161,0.178,0.271,0.38,0.334,0.604c0.063,0.221,0.095,0.435,0.095,0.643c0,0.208-0.032,0.423-0.095,0.643
			c-0.063,0.224-0.173,0.426-0.334,0.604c-0.159,0.178-0.378,0.328-0.654,0.441c-0.276,0.116-0.628,0.175-1.054,0.175H50.7v2.938
			h-0.904V41.19z M50.7,44.125h1.186c0.176,0,0.349-0.012,0.522-0.043c0.173-0.028,0.326-0.08,0.461-0.153
			c0.135-0.077,0.244-0.184,0.325-0.325c0.081-0.141,0.123-0.325,0.123-0.551c0-0.227-0.041-0.411-0.123-0.551
			s-0.19-0.248-0.325-0.325c-0.135-0.074-0.288-0.126-0.461-0.153c-0.173-0.031-0.346-0.043-0.522-0.043H50.7V44.125z"/>
		<path fill="#7F807F" d="M57.965,41.19h0.904v6.663h-0.904V41.19z"/>
		<path fill="#7F807F" d="M64.561,42.036h-2.145V41.19h5.194v0.846h-2.146v5.818h-0.904V42.036z"/>
		<path fill="#7F807F" d="M72.382,41.19h0.82l2.851,6.663h-1.054l-0.668-1.648h-3.172L70.5,47.853h-1.054L72.382,41.19z
			 M74.001,45.415l-1.242-3.057h-0.018l-1.262,3.057H74.001z"/>
		<path fill="#7F807F" d="M79.507,41.19h0.904v5.815h3.061v0.849h-3.964V41.19z"/>
		<path fill="#7F807F" d="M92.184,41.19h2.344c0.426,0,0.778,0.058,1.054,0.175s0.496,0.263,0.656,0.441
			c0.159,0.178,0.27,0.38,0.334,0.604c0.061,0.221,0.095,0.435,0.095,0.643c0,0.208-0.034,0.423-0.095,0.643
			c-0.064,0.224-0.175,0.426-0.334,0.604c-0.159,0.178-0.38,0.328-0.656,0.441c-0.276,0.116-0.628,0.175-1.054,0.175h-1.44v2.938
			h-0.904V41.19z M93.087,44.125h1.186c0.178,0,0.349-0.012,0.524-0.043c0.172-0.028,0.325-0.08,0.46-0.153
			c0.135-0.077,0.245-0.184,0.325-0.325c0.083-0.141,0.123-0.325,0.123-0.551c0-0.227-0.04-0.411-0.123-0.551
			c-0.08-0.141-0.19-0.248-0.325-0.325c-0.135-0.074-0.288-0.126-0.46-0.153c-0.175-0.031-0.346-0.043-0.524-0.043h-1.186V44.125z"
			/>
		<path fill="#7F807F" d="M101.748,41.19h0.818l2.852,6.663h-1.054l-0.668-1.648h-3.174l-0.659,1.648H98.81L101.748,41.19z
			 M103.366,45.415l-1.241-3.057h-0.018l-1.262,3.057H103.366z"/>
		<path fill="#7F807F" d="M108.871,41.19h2.344c0.426,0,0.778,0.058,1.054,0.175c0.276,0.116,0.496,0.263,0.656,0.441
			c0.159,0.178,0.27,0.38,0.334,0.604c0.061,0.221,0.095,0.435,0.095,0.643c0,0.214-0.04,0.42-0.113,0.616
			c-0.077,0.199-0.184,0.377-0.325,0.536c-0.141,0.162-0.316,0.297-0.518,0.404c-0.205,0.11-0.432,0.178-0.683,0.202l1.893,3.042
			h-1.13l-1.694-2.938h-1.008v2.938h-0.904V41.19z M109.775,44.125h1.186c0.178,0,0.349-0.012,0.524-0.043
			c0.172-0.028,0.325-0.08,0.46-0.153c0.135-0.077,0.245-0.184,0.325-0.325c0.083-0.141,0.123-0.325,0.123-0.551
			c0-0.227-0.04-0.411-0.123-0.551c-0.08-0.141-0.19-0.248-0.325-0.325c-0.135-0.074-0.288-0.126-0.46-0.153
			c-0.175-0.031-0.346-0.043-0.524-0.043h-1.186V44.125z"/>
		<path fill="#7F807F" d="M118.432,42.036h-2.145V41.19h5.196v0.846h-2.148v5.818h-0.904V42.036z"/>
		<path fill="#7F807F" d="M125.031,41.19h1.186l3.67,5.478h0.018V41.19h0.904v6.663h-1.149l-3.707-5.478h-0.018v5.478h-0.904V41.19z
			"/>
		<path fill="#7F807F" d="M135.11,41.19h4.301v0.846h-3.398v1.985h3.162v0.849h-3.162v2.135h3.566v0.849h-4.47V41.19z"/>
		<path fill="#7F807F" d="M143.446,41.19h2.344c0.426,0,0.778,0.058,1.054,0.175c0.276,0.116,0.496,0.263,0.656,0.441
			c0.159,0.178,0.27,0.38,0.334,0.604c0.061,0.221,0.095,0.435,0.095,0.643c0,0.214-0.04,0.42-0.113,0.616
			c-0.077,0.199-0.184,0.377-0.325,0.536c-0.141,0.162-0.316,0.297-0.518,0.404c-0.205,0.11-0.432,0.178-0.683,0.202l1.893,3.042
			h-1.13l-1.694-2.938h-1.008v2.938h-0.904V41.19z M144.35,44.125h1.186c0.178,0,0.349-0.012,0.524-0.043
			c0.172-0.028,0.325-0.08,0.46-0.153c0.135-0.077,0.245-0.184,0.325-0.325c0.083-0.141,0.123-0.325,0.123-0.551
			c0-0.227-0.04-0.411-0.123-0.551c-0.08-0.141-0.19-0.248-0.325-0.325c-0.135-0.074-0.288-0.126-0.46-0.153
			c-0.175-0.031-0.346-0.043-0.524-0.043h-1.186V44.125z"/>
		<path fill="#7F807F" d="M151.984,46.459c0.162,0.245,0.371,0.426,0.625,0.542c0.254,0.116,0.518,0.175,0.787,0.175
			c0.15,0,0.303-0.025,0.46-0.07c0.156-0.049,0.3-0.119,0.429-0.214c0.129-0.092,0.233-0.208,0.316-0.346
			c0.08-0.138,0.123-0.3,0.123-0.481c0-0.257-0.083-0.453-0.245-0.588s-0.365-0.248-0.607-0.34c-0.242-0.089-0.505-0.178-0.79-0.263
			c-0.288-0.083-0.551-0.202-0.79-0.352c-0.242-0.15-0.444-0.352-0.607-0.607c-0.165-0.254-0.245-0.597-0.245-1.029
			c0-0.196,0.04-0.401,0.126-0.622c0.086-0.221,0.218-0.42,0.401-0.604c0.181-0.181,0.414-0.334,0.702-0.456
			c0.285-0.123,0.628-0.184,1.029-0.184c0.365,0,0.711,0.052,1.045,0.153c0.331,0.098,0.625,0.303,0.876,0.61l-0.735,0.668
			c-0.113-0.175-0.273-0.316-0.481-0.423c-0.205-0.107-0.441-0.159-0.705-0.159c-0.251,0-0.46,0.034-0.625,0.098
			c-0.169,0.067-0.3,0.15-0.401,0.254c-0.101,0.104-0.172,0.214-0.211,0.334c-0.04,0.119-0.061,0.23-0.061,0.331
			c0,0.282,0.083,0.499,0.245,0.649c0.162,0.15,0.365,0.273,0.607,0.368c0.242,0.092,0.505,0.178,0.79,0.251
			c0.285,0.077,0.548,0.181,0.79,0.316s0.444,0.319,0.607,0.548c0.162,0.227,0.245,0.542,0.245,0.944
			c0,0.322-0.061,0.61-0.184,0.867c-0.123,0.257-0.285,0.475-0.493,0.649c-0.208,0.175-0.453,0.309-0.735,0.404
			c-0.282,0.095-0.582,0.141-0.904,0.141c-0.426,0-0.83-0.077-1.213-0.227c-0.383-0.15-0.686-0.383-0.913-0.695L151.984,46.459z"/>
	</g>
	<g>
		<rect x="159.709" y="44.057" fill="#017F91" width="25.346" height="0.929"/>
	</g>
	<g>
		<line fill="#017F91" x1="1.887" y1="44.522" x2="27.233" y2="44.522"/>
		<rect x="1.887" y="44.057" fill="#017F91" width="25.346" height="0.929"/>
	</g>
</g>
<g>
</g>
<g>
</g>
<g>
</g>
<g>
</g>
<g>
</g>
<g>
</g>
</svg>
